<svg width="24" height="24" viewBox="0 0 24 24" fill="none" xmlns="http://www.w3.org/2000/svg">
  <circle cx="12" cy="12" r="3" fill="#666"/>
  <path d="M19.4 15C19.2 15.3 19.1 15.5 19 15.8C18.9 16 18.8 16.3 18.7 16.6C18.6 16.8 18.5 17.1 18.4 17.3C18.3 17.5 18.2 17.8 18.1 18C18 18.3 17.9 18.5 17.8 18.7C17.7 18.9 17.6 19.2 17.5 19.4C17.4 19.6 17.3 19.9 17.2 20.1C17.1 20.3 17 20.6 16.9 20.8C16.8 21 16.7 21.3 16.6 21.5C16.5 21.7 16.4 22 16.3 22.2L12 21L7.7 22.2C7.6 22 7.5 21.7 7.4 21.5C7.3 21.3 7.2 21 7.1 20.8C7 20.6 6.9 20.3 6.8 20.1C6.7 19.9 6.6 19.6 6.5 19.4C6.4 19.2 6.3 18.9 6.2 18.7C6.1 18.5 6 18.3 5.9 18C5.8 17.8 5.7 17.5 5.6 17.3C5.5 17.1 5.4 16.8 5.3 16.6C5.2 16.3 5.1 16 5 15.8C4.9 15.5 4.8 15.3 4.6 15C4.4 14.7 4.3 14.5 4.2 14.2C4.1 14 4 13.7 4 13.4C4 13.1 4.1 12.8 4.2 12.6C4.3 12.3 4.4 12.1 4.6 11.8C4.8 11.5 4.9 11.3 5 11C5.1 10.8 5.2 10.5 5.3 10.3C5.4 10.1 5.5 9.8 5.6 9.6C5.7 9.4 5.8 9.1 5.9 8.9C6 8.7 6.1 8.4 6.2 8.2C6.3 8 6.4 7.7 6.5 7.5C6.6 7.3 6.7 7 6.8 6.8C6.9 6.6 7 6.3 7.1 6.1C7.2 5.9 7.3 5.6 7.4 5.4C7.5 5.2 7.6 4.9 7.7 4.7L12 3L16.3 4.7C16.4 4.9 16.5 5.2 16.6 5.4C16.7 5.6 16.8 5.9 16.9 6.1C17 6.3 17.1 6.6 17.2 6.8C17.3 7 17.4 7.3 17.5 7.5C17.6 7.7 17.7 8 17.8 8.2C17.9 8.4 18 8.7 18.1 8.9C18.2 9.1 18.3 9.4 18.4 9.6C18.5 9.8 18.6 10.1 18.7 10.3C18.8 10.5 18.9 10.8 19 11C19.1 11.3 19.2 11.5 19.4 11.8C19.6 12.1 19.7 12.3 19.8 12.6C19.9 12.8 20 13.1 20 13.4C20 13.7 19.9 14 19.8 14.2C19.7 14.5 19.6 14.7 19.4 15Z" fill="#666"/>
</svg>
